<?xml version="1.0" encoding="utf-8"?>
<!-- Generator: Adobe Illustrator 26.0.3, SVG Export Plug-In . SVG Version: 6.00 Build 0)  -->
<svg version="1.1" id="Layer_1" xmlns:ev="http://www.w3.org/2001/xml-events"
	 xmlns="http://www.w3.org/2000/svg" xmlns:xlink="http://www.w3.org/1999/xlink" x="0px" y="0px" viewBox="0 0 333 333"
	 style="enable-background:new 0 0 333 333;" xml:space="preserve">
<style type="text/css">
	.st0{clip-path:url(#SVGID_00000084522540730124936720000016438579308585601718_);}
	.st1{opacity:0.69;}
	
		.st2{clip-path:url(#SVGID_00000024689588325966670980000011849926959754961810_);fill:url(#SVGID_00000121239680877608812420000015605900670228283808_);}
	.st3{opacity:0.33;}
	
		.st4{clip-path:url(#SVGID_00000040568319326081518360000015493931247430451856_);fill:url(#SVGID_00000083050691753451998680000006759680616242044347_);}
</style>
<g>
	<defs>
		<rect id="SVGID_1_" y="0" width="333" height="333"/>
	</defs>
	<clipPath id="SVGID_00000036220789375702546280000001307638879366230665_">
		<use xlink:href="#SVGID_1_"  style="overflow:visible;"/>
	</clipPath>
	<g style="clip-path:url(#SVGID_00000036220789375702546280000001307638879366230665_);">
		<g class="st1">
			<defs>
				<path id="SVGID_00000145020788156559820440000010817438669145531819_" class="st1" d="M174.8,206.6l119.8,32.1l-119.8,77.7
					V206.6z M174.8,16.7V185l86.6-23.2L174.8,16.7z M297.4,222.3l-27.3-45.7l-71.7,19.2L297.4,222.3z M62.8,176.6l-27.3,45.7
					l98.9-26.5L62.8,176.6z M158.2,185V16.6L71.7,161.8L158.2,185z M158.2,316.4V206.6L38.4,238.7L158.2,316.4z"/>
			</defs>
			<clipPath id="SVGID_00000161619965643405405850000003229874844157809338_">
				<use xlink:href="#SVGID_00000145020788156559820440000010817438669145531819_"  style="overflow:visible;"/>
			</clipPath>
			
				<linearGradient id="SVGID_00000039125817008202920150000006280470874474535844_" gradientUnits="userSpaceOnUse" x1="19.6793" y1="298.6979" x2="313.3207" y2="34.302">
				<stop  offset="0" style="stop-color:#CE7EFD"/>
				<stop  offset="0.2031" style="stop-color:#7EDBFD"/>
				<stop  offset="0.4016" style="stop-color:#92FEA9"/>
				<stop  offset="0.5637" style="stop-color:#F6FF99"/>
				<stop  offset="0.7012" style="stop-color:#FED492"/>
				<stop  offset="0.8476" style="stop-color:#FD8289"/>
				<stop  offset="1" style="stop-color:#FE6F5F"/>
			</linearGradient>
			
				<polygon style="clip-path:url(#SVGID_00000161619965643405405850000003229874844157809338_);fill:url(#SVGID_00000039125817008202920150000006280470874474535844_);" points="
				297.4,316.4 35.6,316.4 35.6,16.7 297.4,16.7 297.4,219.7 			"/>
		</g>
		<g class="st3">
			<defs>
				<path id="SVGID_00000057115617059359085860000000742931786359161022_" class="st3" d="M265.9,218.5l-98.6,63.9
					c-0.5,0.3-1.1,0.3-1.6,0l-98.6-63.9c-0.7-0.4-0.9-1.3-0.5-2l98.6-165.3c0.6-1,2-1,2.5,0l98.6,165.3
					C266.8,217.1,266.6,218,265.9,218.5z"/>
			</defs>
			<clipPath id="SVGID_00000112632177021406486050000011822922044297321604_">
				<use xlink:href="#SVGID_00000057115617059359085860000000742931786359161022_"  style="overflow:visible;"/>
			</clipPath>
			
				<linearGradient id="SVGID_00000054961309314766695210000003946745980384507520_" gradientUnits="userSpaceOnUse" x1="242.2778" y1="297.751" x2="90.7222" y2="35.249">
				<stop  offset="0" style="stop-color:#F15A22"/>
				<stop  offset="0.2031" style="stop-color:#AB4A9C"/>
				<stop  offset="0.4016" style="stop-color:#00AAAD"/>
				<stop  offset="0.5548" style="stop-color:#B2D235"/>
				<stop  offset="0.7012" style="stop-color:#F9A01B"/>
				<stop  offset="0.8476" style="stop-color:#AB4A9C"/>
				<stop  offset="1" style="stop-color:#B2D235"/>
			</linearGradient>
			
				<rect x="66.4" y="49.3" style="clip-path:url(#SVGID_00000112632177021406486050000011822922044297321604_);fill:url(#SVGID_00000054961309314766695210000003946745980384507520_);" width="200.2" height="234.4"/>
		</g>
	</g>
</g>
</svg>
